<svg id="cash-coin" xmlns="http://www.w3.org/2000/svg" width="118.649" height="118.649" viewBox="0 0 118.649 118.649">
  <path id="Path_3" data-name="Path 3" d="M43.078,72.74A29.662,29.662,0,1,0,13.416,43.078,29.662,29.662,0,0,0,43.078,72.74M80.155,43.078A37.078,37.078,0,1,1,43.078,6,37.078,37.078,0,0,1,80.155,43.078" transform="translate(38.493 38.493)" fill="#eede00" fill-rule="evenodd"/>
  <path id="Path_4" data-name="Path 4" d="M9.444,34.039c.349,4.42,3.841,7.86,10.107,8.276v3.263h2.781V42.293c6.489-.452,10.278-3.923,10.278-8.951,0-4.583-2.892-6.941-8.083-8.157l-2.2-.519v-8.9c2.788.319,4.553,1.839,4.976,3.945h4.879c-.349-4.264-4-7.594-9.855-7.957V8.5H19.552v3.337c-5.539.541-9.307,3.871-9.307,8.587,0,4.168,2.8,6.822,7.467,7.9l1.839.452v9.433c-2.848-.43-4.739-2-5.161-4.175H9.437ZM19.53,24c-2.736-.63-4.219-1.928-4.219-3.871,0-2.18,1.6-3.812,4.242-4.286V24Zm3.2,5.532c3.33.771,4.857,2.017,4.857,4.219,0,2.514-1.906,4.234-5.258,4.553V29.441Z" transform="translate(60.543 54.532)" fill="#eede00"/>
  <path id="Path_5" data-name="Path 5" d="M7.416,0A7.416,7.416,0,0,0,0,7.416V66.74a7.416,7.416,0,0,0,7.416,7.416H37.693a45.073,45.073,0,0,1,1.913-7.416H22.247A14.831,14.831,0,0,0,7.416,51.909V22.247A14.831,14.831,0,0,0,22.247,7.416H96.4a14.831,14.831,0,0,0,14.831,14.831V48.409a44.644,44.644,0,0,1,7.416,8.558V7.416A7.416,7.416,0,0,0,111.233,0Z" fill="#60b946"/>
  <path id="Path_6" data-name="Path 6" d="M35.649,18.44l.015-.615A14.831,14.831,0,1,0,12.438,30.06,44.493,44.493,0,0,1,35.649,18.44" transform="translate(38.492 19.253)" fill="#60b946"/>
</svg>
