<svg xmlns="http://www.w3.org/2000/svg" width="104.019" height="118.878" viewBox="0 0 104.019 118.878">
  <g id="shield-check" transform="translate(-1)">
    <path id="Path_1" data-name="Path 1" d="M33.231,11.814q-10.615,2.923-21.079,6.36a3.566,3.566,0,0,0-2.437,2.9C5.6,51.957,15.109,74.492,26.455,89.337a79.5,79.5,0,0,0,16.992,16.591,45.149,45.149,0,0,0,6.635,3.96,15.729,15.729,0,0,0,2.177.877,7.431,7.431,0,0,0,.75.186,7.43,7.43,0,0,0,.743-.186,16.839,16.839,0,0,0,2.184-.877,46.223,46.223,0,0,0,6.635-3.96A79.5,79.5,0,0,0,79.564,89.337C90.909,74.5,100.42,51.957,96.3,21.071a3.566,3.566,0,0,0-2.437-2.9c-4.837-1.583-13-4.161-21.079-6.353C64.541,9.585,56.955,7.928,53.009,7.928S41.478,9.585,33.231,11.821ZM31.255,4.161C39.316,1.969,47.883,0,53.009,0S66.7,1.969,74.764,4.161c8.247,2.229,16.561,4.867,21.45,6.464A11.442,11.442,0,0,1,103.971,20c4.428,33.264-5.847,57.916-18.315,74.225a87.673,87.673,0,0,1-18.7,18.226,52.009,52.009,0,0,1-7.787,4.644,15.759,15.759,0,0,1-6.159,1.783A15.794,15.794,0,0,1,46.85,117.1a52.008,52.008,0,0,1-7.787-4.644,87.673,87.673,0,0,1-18.7-18.226C7.895,77.917-2.381,53.265,2.048,20A11.442,11.442,0,0,1,9.8,10.625q10.646-3.488,21.45-6.464" transform="translate(0)" fill="#02f"/>
    <path id="Path_2" data-name="Path 2" d="M45.284,6.091a3.715,3.715,0,0,1,0,5.26l-22.29,22.29a3.715,3.715,0,0,1-5.26,0L6.589,22.5a3.72,3.72,0,0,1,5.26-5.26l8.515,8.522L40.023,6.091a3.715,3.715,0,0,1,5.26,0" transform="translate(28.931 32.144)" fill="#02d509"/>
  </g>
</svg>
