<svg xmlns="http://www.w3.org/2000/svg" width="185.812" height="108.506" viewBox="0 0 185.812 108.506">
  <g id="truck_icon" data-name="truck icon" transform="translate(-919.5 463.649)">
    <path id="truck" d="M0,15.558A13.558,13.558,0,0,1,13.558,2h81.35a13.558,13.558,0,0,1,13.558,13.558V29.117h9.22a13.558,13.558,0,0,1,10.576,5.089l13.387,16.722a13.558,13.558,0,0,1,2.974,8.479V78.831a13.558,13.558,0,0,1-13.558,13.558h-4.519a18.078,18.078,0,0,1-36.156,0H45.195a18.078,18.078,0,1,1-36.138-.768A13.558,13.558,0,0,1,0,78.831ZM11.7,82.953a18.078,18.078,0,0,1,31.076.4h50.04a18.078,18.078,0,0,1,6.617-6.617V15.558a4.519,4.519,0,0,0-4.519-4.519H13.558a4.519,4.519,0,0,0-4.519,4.519V78.831A4.519,4.519,0,0,0,11.7,82.953m96.771-8.641a18.078,18.078,0,0,1,15.655,9.039h6.942a4.519,4.519,0,0,0,4.519-4.519V59.4a4.519,4.519,0,0,0-.994-2.82L121.212,39.855a4.519,4.519,0,0,0-3.525-1.7h-9.22ZM27.117,83.35a9.039,9.039,0,1,0,9.039,9.039,9.039,9.039,0,0,0-9.039-9.039m81.35,0a9.039,9.039,0,1,0,9.039,9.039,9.039,9.039,0,0,0-9.039-9.039" transform="translate(960.688 -465.649)" fill="#02f"/>
    <line id="Línea_3" data-name="Línea 3" x2="50.839" transform="translate(945.149 -420.5)" fill="none" stroke="#02f" stroke-linecap="round" stroke-width="9"/>
    <path id="Trazado_56" data-name="Trazado 56" d="M0,0H71.581" transform="translate(924 -444.5)" fill="none" stroke="#02f" stroke-linecap="round" stroke-width="9"/>
    <line id="Línea_5" data-name="Línea 5" x2="58.973" transform="translate(936.608 -432.5)" fill="none" stroke="#02f" stroke-linecap="round" stroke-width="9"/>
  </g>
</svg>
